<?xml version="1.0" encoding="UTF-8" standalone="no"?>
<svg
   xmlns:dc="http://purl.org/dc/elements/1.1/"
   xmlns:cc="http://creativecommons.org/ns#"
   xmlns:rdf="http://www.w3.org/1999/02/22-rdf-syntax-ns#"
   xmlns:svg="http://www.w3.org/2000/svg"
   xmlns="http://www.w3.org/2000/svg"
   xmlns:sodipodi="http://sodipodi.sourceforge.net/DTD/sodipodi-0.dtd"
   xmlns:inkscape="http://www.inkscape.org/namespaces/inkscape"
   enable-background="new 0 0 512 512"
   id="Layer_1"
   version="1.1"
   viewBox="0 0 32 32"
   xml:space="preserve"
   sodipodi:docname="skype.svg"
   width="32"
   height="32"
   inkscape:version="0.92.1 r15371"><metadata
     id="metadata13"><rdf:RDF><cc:Work
         rdf:about=""><dc:format>image/svg+xml</dc:format><dc:type
           rdf:resource="http://purl.org/dc/dcmitype/StillImage" /><dc:title></dc:title></cc:Work></rdf:RDF></metadata><defs
     id="defs11" /><sodipodi:namedview
     pagecolor="#ffffff"
     bordercolor="#666666"
     borderopacity="1"
     objecttolerance="10"
     gridtolerance="10"
     guidetolerance="10"
     inkscape:pageopacity="0"
     inkscape:pageshadow="2"
     inkscape:window-width="1280"
     inkscape:window-height="961"
     id="namedview9"
     showgrid="false"
     inkscape:zoom="8.34375"
     inkscape:cx="-4.3146067"
     inkscape:cy="16"
     inkscape:window-x="-8"
     inkscape:window-y="-8"
     inkscape:window-maximized="1"
     inkscape:current-layer="Layer_1" /><g
     id="g6"
     style="fill:#ffffff;fill-opacity:1;stroke-width:0.1;stroke-miterlimit:4;stroke-dasharray:none"
     transform="matrix(0.06521819,0,0,0.06521819,-0.84790715,-0.843374)"><path
       d="m 29.2,250.2 c 0.5,-5.5 1.5,-16.1 2.3,-26.7 0.2,-2.5 -0.1,-5.3 -1.2,-7.5 -40.1,-80 2.5,-175.4 89,-198.3 34.2,-9.1 67.3,-5 99.1,10.8 2.5,1.2 5.7,1.9 8.4,1.6 64,-7.1 121.8,8.3 172,48.9 46.8,37.9 74.2,87.2 82.4,147.1 2.7,19.8 2.5,39.5 0.1,59.3 -0.4,3 0.3,6.7 1.8,9.3 48.3,84.7 -2.9,192 -99.2,207.1 -33.8,5.3 -65.6,-1.2 -95,-18.9 -2.2,-1.3 -5.3,-2.1 -7.8,-1.9 C 184.4,490.3 96.4,442 52.7,355.6 37.7,325.9 29.7,291.5 29.2,250.2 Z m 19.4,5.2 c 0.7,50.2 18.1,98.3 52.2,136.2 48.8,54.2 110.1,76.8 182.6,68.7 4.5,-0.5 8.2,0.2 12.1,2.8 31.2,20.6 65,25.9 100.7,15.4 75.5,-22.3 108.7,-110.1 67.3,-177.3 -2.2,-3.5 -4.2,-6.8 -3.4,-11.5 C 464.9,262.8 464,236 458,209.3 434.7,106.6 336.5,35.1 227,50.4 c -5.8,0.8 -10.5,0 -15.6,-2.7 -53.4,-29.1 -120,-14 -154.5,36.1 -27.9,40.6 -29.2,83.4 -6.7,127 1.6,3.2 2.5,6.1 2,9.8 -1.5,11.6 -2.5,23.2 -3.6,34.8 z"
       id="path2"
       style="fill:#ffffff;fill-opacity:1;stroke-width:0.1;stroke-miterlimit:4;stroke-dasharray:none"
       inkscape:connector-curvature="0" /><path
       d="M 253.5,383.1 C 233,382.9 213,380.4 194,372.1 182.4,367 172,360.2 163.4,350.9 c -7.9,-8.5 -12.7,-18.3 -12.7,-30.1 -0.1,-18.8 18.7,-30.1 35.1,-20.8 3.9,2.2 7.3,5.8 10.5,9.1 3.4,3.5 6.4,7.2 9.3,11.1 13.6,18 32.6,22.4 53.7,21.2 10,-0.5 19.3,-3.3 27.5,-9.4 9.4,-7.1 14.2,-16.3 12.1,-28.2 -2,-11.3 -10.2,-16.9 -20.3,-19.7 -19.6,-5.4 -39.3,-10.2 -59,-15.1 -15.4,-3.9 -30.5,-8.2 -43.6,-17.8 -15.7,-11.4 -24,-27 -25,-46.2 -1.8,-35.4 13.7,-60.3 47.4,-72.7 40.7,-15 80.8,-12.7 118.9,9.2 7.1,4.1 13.6,9.7 19.2,15.7 4,4.3 6.8,10.4 8.4,16.1 3.3,11.6 -0.1,20.3 -8.8,25.8 -9.8,6.2 -22.2,6 -30.8,-1.3 -5.7,-4.8 -10.7,-10.5 -15.9,-15.9 -5.8,-6 -12.8,-10.1 -20.8,-12.3 -13.8,-3.8 -27.6,-4.4 -41.4,-0.5 -8.5,2.4 -15.4,7.1 -19.4,15.3 -5.3,10.7 -3.2,21 7.1,26.9 7.9,4.6 16.8,8.1 25.7,10.4 18.6,4.9 37.7,8.4 56.3,13.3 8.9,2.4 17.8,5.8 25.9,10.3 26.9,14.9 36,40 32.8,68.5 -3.7,32.5 -24.9,55.3 -59.5,63.9 -13.8,3.4 -28.2,4.5 -42.3,6.6 -0.2,-0.3 -0.2,-0.8 -0.3,-1.2 z"
       id="path4"
       style="fill:#ffffff;fill-opacity:1;stroke-width:0.1;stroke-miterlimit:4;stroke-dasharray:none"
       inkscape:connector-curvature="0" /></g></svg>