<?xml version="1.0" encoding="UTF-8" standalone="no"?>
<svg
   xmlns:dc="http://purl.org/dc/elements/1.1/"
   xmlns:cc="http://creativecommons.org/ns#"
   xmlns:rdf="http://www.w3.org/1999/02/22-rdf-syntax-ns#"
   xmlns:svg="http://www.w3.org/2000/svg"
   xmlns="http://www.w3.org/2000/svg"
   xmlns:sodipodi="http://sodipodi.sourceforge.net/DTD/sodipodi-0.dtd"
   xmlns:inkscape="http://www.inkscape.org/namespaces/inkscape"
   viewBox="0 0 32 32"
   version="1.1"
   id="svg7"
   sodipodi:docname="social-vk-hover.svg"
   inkscape:version="0.92.1 r15371"
   width="32"
   height="32">
  <metadata
     id="metadata13">
    <rdf:RDF>
      <cc:Work
         rdf:about="">
        <dc:format>image/svg+xml</dc:format>
        <dc:type
           rdf:resource="http://purl.org/dc/dcmitype/StillImage" />
        <dc:title></dc:title>
      </cc:Work>
    </rdf:RDF>
  </metadata>
  <defs
     id="defs11" />
  <sodipodi:namedview
     pagecolor="#ffffff"
     bordercolor="#666666"
     borderopacity="1"
     objecttolerance="10"
     gridtolerance="10"
     guidetolerance="10"
     inkscape:pageopacity="0"
     inkscape:pageshadow="2"
     inkscape:window-width="1086"
     inkscape:window-height="772"
     id="namedview9"
     showgrid="false"
     inkscape:zoom="23.291667"
     inkscape:cx="12"
     inkscape:cy="12"
     inkscape:window-x="0"
     inkscape:window-y="0"
     inkscape:window-maximized="0"
     inkscape:current-layer="svg7" />
  <g
     data-name="VK Logo"
     id="VK_Logo"
     style="fill:#677248;fill-opacity:1;stroke:none;stroke-opacity:1"
     transform="matrix(1.3328791,0,0,1.3328791,0.01090157,0.0054508)">
    <path
       d="m 20,13 c 0.24,-0.45 1.09,-1.74 1.73,-2.7 C 23.65,7.46 24,6.86 24,6.5 A 0.5,0.5 0 0 0 23.5,6 H 19 a 0.5,0.5 0 0 0 -0.49,0.41 c -0.25,1.38 -3.49,5.34 -4,5.59 -0.21,0 -0.5,-0.52 -0.5,-1.5 V 6.28 A 1.18,1.18 0 0 0 13.77,5.35 C 13.43,5 12.92,5 11.5,5 8.92,5 8,5.77 8,6.5 A 0.46,0.46 0 0 0 8.45,7 C 8.45,7 9,7.36 9,9.5 A 14.61,14.61 0 0 1 8.87,12 C 7.6,11.77 5.84,8.6 5,6.32 A 0.5,0.5 0 0 0 4.5,6 h -4 A 0.5,0.5 0 0 0 0,6.59 C 0.56,9.61 6.91,19 11,19 h 2 c 1.06,0 1.14,-1.15 1.2,-1.91 0.06,-0.76 0.11,-1.09 0.3,-1.09 0.62,0 1.89,1.1 2.72,1.82 C 18.05,18.54 18.59,19 19,19 h 2.5 C 22.79,19 24,19 24,18 24,17.62 23.67,17.18 21.77,15 21.14,14.31 20.29,13.36 20,13 Z"
       style="fill:#677248;fill-opacity:1;stroke:none;stroke-opacity:1"
       id="path4"
       inkscape:connector-curvature="0" />
  </g>
</svg>
